<svg xmlns="http://www.w3.org/2000/svg" xmlns:xlink="http://www.w3.org/1999/xlink" width="1932.4" height="1257.202" viewBox="0 0 1932.4 1257.202">
  <defs>
    <linearGradient id="linear-gradient" x1="0.808" y1="1.128" x2="0.26" y2="-0.222" gradientUnits="objectBoundingBox">
      <stop offset="0" stop-color="#0b52b2"/>
      <stop offset="1" stop-color="#fff" stop-opacity="0.941"/>
    </linearGradient>
    <linearGradient id="linear-gradient-2" x1="0.5" x2="0.5" y2="1.763" gradientUnits="objectBoundingBox">
      <stop offset="0" stop-color="#0b52b2"/>
      <stop offset="1" stop-color="#062959"/>
    </linearGradient>
  </defs>
  <g id="Group_980" data-name="Group 980" transform="translate(6 -5865.198)">
    <path id="Path_904" data-name="Path 904" d="M13548,4946.4s235.6,108.8,365.2-84.8c33.6-43.2,132.8-404.8,472-214.4,167.2,132,384.8,287.2,756,101.6,137.6-86.4,222.4-78.4,339.2-57.6V5818.4H13549.6Z" transform="translate(-13554 1273)" opacity="0.4" fill="url(#linear-gradient)"/>
    <path id="Path_934" data-name="Path 934" d="M13548,4946.4s235.6,108.8,365.2-84.8c33.6-43.2,132.8-404.8,472-214.4,167.2,132,384.8,287.2,756,101.6,137.6-86.4,222.4-78.4,339.2-57.6V5818.4H13549.6Z" transform="translate(-13554 1304)" fill="url(#linear-gradient-2)"/>
  </g>
</svg>
