<svg xmlns="http://www.w3.org/2000/svg" xmlns:xlink="http://www.w3.org/1999/xlink" width="1920" height="796" viewBox="0 0 1920 796">
  <defs>
    <clipPath id="clip-path">
      <rect id="Rectangle_584" data-name="Rectangle 584" width="1920" height="796" fill="none"/>
    </clipPath>
    <linearGradient id="linear-gradient" x1="-0.979" y1="1.008" x2="-1.768" y2="1.569" gradientUnits="objectBoundingBox">
      <stop offset="0" stop-color="#6076fa"/>
      <stop offset="1" stop-color="#81d3e4"/>
    </linearGradient>
    <linearGradient id="linear-gradient-2" x1="-1.237" y1="1.101" x2="-1.783" y2="1.762" gradientUnits="objectBoundingBox">
      <stop offset="0" stop-color="#81d3e4"/>
      <stop offset="1" stop-color="#6076fa"/>
    </linearGradient>
  </defs>
  <g id="Mask_Group_28" data-name="Mask Group 28" clip-path="url(#clip-path)">
    <g id="Group_1030" data-name="Group 1030" transform="translate(805.555 -309.02)">
      <path id="Path_981" data-name="Path 981" d="M1468.557,1080.348c113.828,21.477,168.1,105.278,234.844,161.7,78.574,66.42,174.091,29.612,255.725,17.893,146.74-21.058,196.622,133.529,358.091,113.043,154.534-19.6,214.841-213.178,118.769-324.023s-92.924-144.317-70.833-222.726,60.98-225.186-93.7-238.442c-132.951-11.39-209.794-44.609-268.317-102.342s-274.058-216.707-374.6,24.783c-48.045,115.4-77.013,156-184.955,185.6s-183.381,111.089-186.76,203.353C1253.617,986.559,1316.528,1051.663,1468.557,1080.348Z" transform="translate(-1256.7 -380.551)" fill="url(#linear-gradient)" style="mix-blend-mode: multiply;isolation: isolate"/>
      <path id="Path_982" data-name="Path 982" d="M1969.34,477.31c-91.9,67.055-194.144,75.844-302,54.452s-198.066-25.279-268.664,75.847-44.24,291.462,147.079,338.385c182.375,44.729,212.808,191.428,245.13,295.6C1830.105,1368,1947.77,1420.51,2069.354,1395.23s154.921-114.741,201.987-252.817S2373.9,987.279,2455.679,945.994c100.151-50.564,185.171-203.391,1.96-289.768C2218.393,543.432,2236.533,282.347,1969.34,477.31Z" transform="translate(-1270.406 -383.977)" fill="url(#linear-gradient-2)" style="mix-blend-mode: multiply;isolation: isolate"/>
    </g>
    <g id="Group_1068" data-name="Group 1068" transform="translate(947.035 139.643)">
      <g id="Group_1046" data-name="Group 1046" transform="translate(207.862)">
        <path id="Path_983" data-name="Path 983" d="M639.9,375.444,680.15,352.2c3.012-1.74,3.012-4.557,0-6.3L494.936,238.971a12.06,12.06,0,0,0-10.908,0l-40.254,23.24c-3.014,1.74-3.014,4.559,0,6.3L628.988,375.444A12.065,12.065,0,0,0,639.9,375.444Z" transform="translate(-160.143 4.499)" fill="#c1cff4"/>
        <path id="Path_984" data-name="Path 984" d="M668.352,359.04,708.6,335.8c3.014-1.738,3.014-4.557,0-6.3L523.39,222.567a12.06,12.06,0,0,0-10.907,0l-40.254,23.242c-3.012,1.738-3.012,4.557,0,6.3L657.442,359.04A12.051,12.051,0,0,0,668.352,359.04Z" transform="translate(-128.865 -13.533)" fill="#c1cff4"/>
        <path id="Path_985" data-name="Path 985" d="M312.246,372.884,481.662,470.7c5.019,2.895,13.16,2.895,18.181,0L694.837,358.116c5.019-2.9,5.019-7.6,0-10.5L525.419,249.806c-5.019-2.9-13.158-2.9-18.179,0L312.246,362.388C307.227,365.287,307.227,369.985,312.246,372.884Z" transform="translate(-306.371 15.453)" fill="#c1cff4"/>
        <g id="Group_1031" data-name="Group 1031" transform="translate(382.215)">
          <path id="Path_986" data-name="Path 986" d="M519.2,124.644l.1,39.452-25.68-14.829-.006-9.854Z" transform="translate(-485.09 -119.736)" fill="#7c2549"/>
          <path id="Path_987" data-name="Path 987" d="M582.1,384.79l.013-195.372c.019-.011.011-9.218.011-9.218a18.591,18.591,0,0,0-2.653-8.964l8.653-5a17.275,17.275,0,0,1,2.511,8.416c0,1.356,0,2.645,0,3.829l0,1.675c.006.77,0,1.476.01,2.076-.008.321,0,.584-.006.829.006.262,0,.46-.006.659,0,.244,0,.43.015.571,0,.124-.008.2-.008.2l0,195.37a9.757,9.757,0,0,1-4.268,7.712c-1.022.588-6.927,4-6.927,4C582.063,390.054,582.1,386.431,582.1,384.79Z" transform="translate(-390.755 -74.014)" fill="#bf2878"/>
          <path id="Path_988" data-name="Path 988" d="M653.96,208.567,646,203.976l-.01-.019L512.643,126.982c-.206-.1-.437-.21-.659-.3a6.66,6.66,0,0,0-.758-.267l-.489-.13a6.66,6.66,0,0,0-.739-.107,5.629,5.629,0,0,0-.982-.061,8.351,8.351,0,0,0-.984.057,5.42,5.42,0,0,0-.949.162,5.856,5.856,0,0,0-.785.235.343.343,0,0,0-.193.088,1.6,1.6,0,0,0-.3.1l-.008.029.1,25.828.017,9.856.676,177.888c.019,5.783,4.108,12.826,9.144,15.713l113.22,64.7,25,14.289c5.025,2.868,9.115.506,9.117-5.288l0-196.285,0-9.188a18.671,18.671,0,0,0-2.655-8.964A18.352,18.352,0,0,0,653.96,208.567Z" transform="translate(-471.702 -118.115)" fill="#8e2d59"/>
          <path id="Path_989" data-name="Path 989" d="M519.917,128.535l143.455,82.82a10.5,10.5,0,0,1,5.248,9.09l-.008,204.477a5.257,5.257,0,0,1-2.624,4.545l-21.949,12.673.319-213.747L495.644,142.52Z" transform="translate(-482.858 -115.459)" fill="#fff"/>
          <path id="Path_990" data-name="Path 990" d="M590.917,175.066l-.008,204.477a5.257,5.257,0,0,1-2.624,4.545L566.335,396.76l.319-213.746,22.856-13.2A10.485,10.485,0,0,1,590.917,175.066Z" transform="translate(-405.154 -70.081)" fill="#dae6ea"/>
          <path id="Path_991" data-name="Path 991" d="M497.378,139.9l20.136-11.6a5.467,5.467,0,0,1,4.855-.344c1.173.678.9,1.931-.6,2.8l-20.117,11.615a5.467,5.467,0,0,1-4.866.34C495.606,142.025,495.871,140.77,497.378,139.9Z" transform="translate(-482.413 -116.564)" fill="#ffdb4c"/>
          <path id="Path_992" data-name="Path 992" d="M574.385,189.54c.015,1.83.015,3.214,0,3.9l0,.384c0,.046-.01,108.26-.01,108.26l0,87.161a9.742,9.742,0,0,1-4.263,7.708l-6.929,4c2.725-1.57,2.668-5.244,2.668-6.785l0-97.025.017-98.345c-.013-.019-.017-9.178-.017-9.178a18.519,18.519,0,0,0-2.664-8.982l8.69-5.017a17.246,17.246,0,0,1,2.507,8.418c.006,1.352,0,2.643,0,3.827Z" transform="translate(-408.616 -63.703)" fill="#bf2878"/>
          <path id="Path_993" data-name="Path 993" d="M646.795,442.465l.008-28.7-.013-167.583,0-9.188a20.146,20.146,0,0,0-9.119-15.752l-7.929-4.583-.013-.019L523.763,155.463l-25.125-14.51-5.309-3.067a11.909,11.909,0,0,1-1.851-1.356,6.157,6.157,0,0,1-.7-.756,5.414,5.414,0,0,1-.567-.812,6.165,6.165,0,0,1-.279-.567,2.676,2.676,0,0,1-.185-.573,1.215,1.215,0,0,1-.088-.407.911.911,0,0,1-.063-.4,1.594,1.594,0,0,1-.029-.516l.031,219.27c0,5.792,4.108,12.824,9.144,15.71L637.68,447.753C642.705,450.621,646.776,448.27,646.795,442.465Z" transform="translate(-489.552 -111.103)" fill="#e7478d"/>
          <path id="Path_994" data-name="Path 994" d="M504.915,141.747l18.307-10.569a1.823,1.823,0,0,1,.422-.2.618.618,0,0,1,.311-.13.343.343,0,0,1,.193-.088,5.863,5.863,0,0,1,.785-.235,5.417,5.417,0,0,1,.949-.162,8.349,8.349,0,0,1,.984-.057,5.63,5.63,0,0,1,.982.061,6.652,6.652,0,0,1,.739.107l.489.13a3.471,3.471,0,0,1,.758.267c.223.088.453.2.659.3l133.347,76.975.019-.011,7.971,4.61a18.6,18.6,0,0,1,6.434,6.78l8.653-5a17.262,17.262,0,0,0-6.035-6.382c-1.167-.68-2.29-1.32-3.313-1.917l-1.451-.833c-.663-.395-1.278-.743-1.795-1.05-.281-.153-.506-.29-.72-.409-.225-.136-.4-.231-.573-.321-.216-.12-.371-.225-.489-.3-.107-.059-.174-.09-.174-.09l-136.41-78.749c-5.017-2.9-13.16-2.9-18.179,0L493.329,138.6c-2.439,1.406-3.682,3.239-3.776,5.088l.01.017v.34c.013.065.015.111.029.176a1.355,1.355,0,0,0,.063.4,1.214,1.214,0,0,0,.088.407,2.672,2.672,0,0,0,.185.573,6.148,6.148,0,0,0,.279.567,5.415,5.415,0,0,0,.567.812,6.159,6.159,0,0,0,.7.756,11.91,11.91,0,0,0,1.851,1.356l5.309,3.067,25.125,14.51,105.972,61.173.013.019,7.929,4.583.029.008a18.592,18.592,0,0,1,6.417,6.791l8.691-5.017a17.267,17.267,0,0,0-6.037-6.382c-1.167-.682-2.288-1.32-3.311-1.917l-1.453-.833c-1.579-.932-2.777-1.621-3.382-1.952l-.329-.2a.067.067,0,0,1-.04-.027L523.747,156.81l-18.834-10.87C502.916,144.79,502.916,142.9,504.915,141.747Z" transform="translate(-489.553 -122.306)" fill="#ff66a7"/>
        </g>
        <g id="Group_1032" data-name="Group 1032" transform="translate(325.573 46.149)">
          <path id="Path_995" data-name="Path 995" d="M492.213,146.628l.1,39.452-25.68-14.829-.006-9.853Z" transform="translate(-458.106 -141.72)" fill="#345184"/>
          <path id="Path_996" data-name="Path 996" d="M555.115,396.883l.013-185.483c.017-.01.011-9.218.011-9.218a18.6,18.6,0,0,0-2.653-8.961l8.653-5a17.249,17.249,0,0,1,2.508,8.416c.006,1.354,0,2.643,0,3.829l0,1.673c.009.77,0,1.478.013,2.078-.008.321,0,.584-.006.827.006.265,0,.462-.008.659,0,.246.008.432.017.573,0,.122-.008.2-.008.2l-.006,185.479a9.751,9.751,0,0,1-4.265,7.712l-6.927,4C555.081,402.15,555.115,398.525,555.115,396.883Z" transform="translate(-363.771 -95.997)" fill="#6f89d1"/>
          <path id="Path_997" data-name="Path 997" d="M626.979,230.553l-7.96-4.593-.01-.017L485.66,148.968c-.2-.1-.437-.21-.657-.3a6.844,6.844,0,0,0-.76-.264l-.487-.13a6.63,6.63,0,0,0-.741-.107,5.413,5.413,0,0,0-.98-.063,8.811,8.811,0,0,0-.984.059,5.211,5.211,0,0,0-.949.162,6.2,6.2,0,0,0-.785.233.359.359,0,0,0-.193.088,1.731,1.731,0,0,0-.3.1l-.008.029.1,25.829.017,9.854.676,168c.019,5.783,4.11,12.826,9.146,15.712l113.218,64.7,25,14.289c5.023,2.87,9.115.508,9.115-5.286l0-186.4,0-9.19a18.665,18.665,0,0,0-2.653-8.961A18.338,18.338,0,0,0,626.979,230.553Z" transform="translate(-444.719 -140.099)" fill="#4c68a5"/>
          <path id="Path_998" data-name="Path 998" d="M492.935,150.52l143.453,82.82a10.5,10.5,0,0,1,5.248,9.089l-.006,194.585a5.252,5.252,0,0,1-2.624,4.545l-21.951,12.673.321-203.855L468.662,164.5Z" transform="translate(-455.874 -137.442)" fill="#fff"/>
          <path id="Path_999" data-name="Path 999" d="M563.934,197.051l-.006,194.585a5.249,5.249,0,0,1-2.624,4.545l-21.951,12.673L539.673,205l22.856-13.2A10.5,10.5,0,0,1,563.934,197.051Z" transform="translate(-378.171 -92.064)" fill="#dae6ea"/>
          <path id="Path_1000" data-name="Path 1000" d="M470.395,161.886l20.138-11.6a5.464,5.464,0,0,1,4.853-.346c1.175.678.9,1.933-.6,2.8l-20.117,11.615a5.469,5.469,0,0,1-4.864.34C468.623,164.011,468.887,162.753,470.395,161.886Z" transform="translate(-455.43 -138.547)" fill="#ffdb4c"/>
          <path id="Path_1001" data-name="Path 1001" d="M547.4,211.523c.017,1.833.015,3.216,0,3.9l0,.386c0,.046-.012,98.37-.012,98.37l0,87.159a9.737,9.737,0,0,1-4.261,7.708c-1.1.638-6.93,4-6.93,4,2.725-1.57,2.668-5.244,2.668-6.782l0-97.025.015-88.458c-.01-.017-.015-9.178-.015-9.178a18.5,18.5,0,0,0-2.664-8.98l8.691-5.017a17.263,17.263,0,0,1,2.507,8.416c.006,1.354,0,2.643,0,3.829Z" transform="translate(-381.632 -85.686)" fill="#6f89d1"/>
          <path id="Path_1002" data-name="Path 1002" d="M619.813,454.561l.006-28.7-.008-157.694,0-9.19a20.146,20.146,0,0,0-9.119-15.75l-7.931-4.585-.008-.017L496.78,177.446l-25.125-14.508-5.309-3.067a11.909,11.909,0,0,1-1.851-1.356,6.357,6.357,0,0,1-.7-.758,5.436,5.436,0,0,1-.565-.812,6.145,6.145,0,0,1-.279-.565,2.72,2.72,0,0,1-.185-.573,1.27,1.27,0,0,1-.09-.409.929.929,0,0,1-.061-.4,1.534,1.534,0,0,1-.031-.516l.034,209.38c0,5.792,4.108,12.824,9.142,15.71L610.7,459.847C615.722,462.714,619.795,460.363,619.813,454.561Z" transform="translate(-462.569 -133.086)" fill="#7fa8e6"/>
          <path id="Path_1003" data-name="Path 1003" d="M477.934,163.731l18.3-10.567a1.739,1.739,0,0,1,.422-.2.636.636,0,0,1,.313-.132.359.359,0,0,1,.193-.088,6.206,6.206,0,0,1,.785-.233,5.209,5.209,0,0,1,.949-.162,8.8,8.8,0,0,1,.985-.059,5.408,5.408,0,0,1,.98.063,6.622,6.622,0,0,1,.741.107l.487.13a3.529,3.529,0,0,1,.76.264c.22.09.453.2.657.3L636.86,230.135l.017-.01,7.971,4.608a18.611,18.611,0,0,1,6.436,6.783l8.653-5a17.247,17.247,0,0,0-6.035-6.382c-1.169-.682-2.29-1.32-3.313-1.919l-1.453-.833c-.661-.393-1.276-.743-1.793-1.05-.281-.151-.506-.29-.72-.407-.225-.136-.4-.231-.573-.323-.216-.12-.372-.222-.489-.3-.109-.059-.176-.092-.176-.092L508.977,146.463c-5.017-2.9-13.162-2.9-18.179,0L466.346,160.58c-2.437,1.406-3.682,3.241-3.776,5.091l.01.017,0,.34c.013.063.015.111.029.176a1.406,1.406,0,0,0,.061.4,1.272,1.272,0,0,0,.09.409,2.723,2.723,0,0,0,.185.573,6.13,6.13,0,0,0,.279.565,5.434,5.434,0,0,0,.565.812,6.361,6.361,0,0,0,.7.758,11.91,11.91,0,0,0,1.851,1.356l5.309,3.067,25.125,14.508,105.976,61.175.008.017,7.931,4.585.027.008a18.563,18.563,0,0,1,6.419,6.791l8.691-5.017a17.3,17.3,0,0,0-6.035-6.382c-1.171-.682-2.29-1.32-3.313-1.919l-1.453-.833c-1.581-.932-2.777-1.621-3.382-1.95l-.33-.2a.07.07,0,0,1-.04-.025L496.764,178.8l-18.832-10.87C475.933,166.777,475.933,164.885,477.934,163.731Z" transform="translate(-462.57 -144.29)" fill="#aacaf9"/>
        </g>
        <g id="Group_1033" data-name="Group 1033" transform="translate(0 208.918)">
          <path id="Path_1004" data-name="Path 1004" d="M310,315.8l34.22-19.635L318.541,281.34l-8.535,4.922Z" transform="translate(-304.696 -156.415)" fill="#363687"/>
          <path id="Path_1005" data-name="Path 1005" d="M598.621,294.086,412.382,401.626c0,.023-7.977,4.618-7.977,4.618a18.578,18.578,0,0,1-9.09,2.183v9.992a17.215,17.215,0,0,0,8.544-2.036c1.176-.67,2.288-1.323,3.317-1.91l1.449-.838c.672-.38,1.281-.737,1.805-1.029.273-.17.5-.294.714-.422.231-.124.4-.229.567-.336.21-.124.378-.21.5-.273.1-.061.168-.105.168-.105L598.621,303.94a9.756,9.756,0,0,0,4.545-7.551v-8C603.166,291.426,600.042,293.267,598.621,294.086Z" transform="translate(-210.923 -148.664)" fill="#5c5cc4"/>
          <path id="Path_1006" data-name="Path 1006" d="M487.4,460.956a18.635,18.635,0,0,0,9.089-2.183l7.956-4.6L691.48,346.193c5.017-2.9,5.017-7.62.021-10.536l-24.875-14.506L532.151,242.807c-5.017-2.918-13.162-2.939-18.177-.063l-171.443,98.2-8.544,4.912-22.419,12.828-.021.019a1.675,1.675,0,0,0,.063.317.338.338,0,0,0,.021.208,6.223,6.223,0,0,0,.189.8,5.275,5.275,0,0,0,.336.9,8.641,8.641,0,0,0,.441.882,5.638,5.638,0,0,0,.546.817,6.08,6.08,0,0,0,.462.59l.357.357a7.52,7.52,0,0,0,.609.525c.189.147.4.292.588.42l155.173,89.636h.021l7.956,4.6A18.355,18.355,0,0,0,487.4,460.956Z" transform="translate(-303.002 -201.193)" fill="#4949a5"/>
          <path id="Path_1007" data-name="Path 1007" d="M314.092,321.383,479.375,416.85a10.5,10.5,0,0,0,10.5,0L684,304.763a5.246,5.246,0,0,0,2.624-4.545V274.873l-202,116.992L314.067,293.371Z" transform="translate(-300.231 -163.523)" fill="#fff"/>
          <path id="Path_1008" data-name="Path 1008" d="M400.564,416.85,594.687,304.763a5.246,5.246,0,0,0,2.624-4.545V274.873l-202,116.992v26.391A10.473,10.473,0,0,0,400.564,416.85Z" transform="translate(-210.923 -163.523)" fill="#dae6ea"/>
          <path id="Path_1009" data-name="Path 1009" d="M313.049,286.6l.021,23.24a5.461,5.461,0,0,0,2.127,4.377c1.174.676,2.124-.183,2.124-1.921v-23.23a5.459,5.459,0,0,0-2.137-4.381C314,284,313.049,284.856,313.049,286.6Z" transform="translate(-301.35 -153)" fill="#ffdb4c"/>
          <path id="Path_1010" data-name="Path 1010" d="M408.625,394.878c1.6-.9,2.792-1.6,3.38-1.954l.336-.189c.042-.019,110.8-63.981,110.8-63.981l75.485-43.579a9.745,9.745,0,0,0,4.545-7.545c0-1.274,0-8,0-8,0,3.145-3.208,4.933-4.541,5.7l-84.029,48.506-102.21,59.029c-.023,0-7.956,4.578-7.956,4.578a18.534,18.534,0,0,1-9.111,2.183v10.032a17.238,17.238,0,0,0,8.544-2.036c1.176-.672,2.288-1.32,3.317-1.91Z" transform="translate(-210.923 -169.287)" fill="#5c5cc4"/>
          <path id="Path_1011" data-name="Path 1011" d="M694.623,327.429l-24.854,14.359L507.585,435.41l-7.956,4.6a20.139,20.139,0,0,1-18.2-.021l-7.937-4.578h-.021l-127.8-73.831-25.127-14.505-5.311-3.065a11.864,11.864,0,0,0-2.1-.922,6.538,6.538,0,0,0-1.008-.233,5.56,5.56,0,0,0-.987-.084c-.21,0-.42.023-.63.044a2.66,2.66,0,0,0-.588.124,1.274,1.274,0,0,0-.4.128.937.937,0,0,0-.378.145,1.648,1.648,0,0,0-.462.233L517.117,223.976c5.015-2.895,13.16-2.853,18.177.065l159.35,92.847C699.64,319.809,699.64,324.509,694.623,327.429Z" transform="translate(-306.146 -221.829)" fill="#8989e0"/>
          <path id="Path_1012" data-name="Path 1012" d="M523.213,223.258a13.748,13.748,0,0,0-1.5-.716L321.938,337.882c-3.012,1.738-3.014,4.559,0,6.3l142.529,82.345a12.051,12.051,0,0,0,10.909,0l199.26-115.042Z" transform="translate(-294.064 -221.045)" fill="#c1cff4" style="mix-blend-mode: multiply;isolation: isolate"/>
          <path id="Path_1013" data-name="Path 1013" d="M316,294.39v21.139a1.808,1.808,0,0,0,.042.462.65.65,0,0,0,.042.336.337.337,0,0,0,.021.208,6.221,6.221,0,0,0,.189.8,5.27,5.27,0,0,0,.336.9,8.637,8.637,0,0,0,.441.882,5.643,5.643,0,0,0,.546.817,6.1,6.1,0,0,0,.462.59l.357.357a3.7,3.7,0,0,0,.609.525c.189.147.4.292.588.42L474.8,411.463v.023l7.977,4.6a18.577,18.577,0,0,0,9.09,2.183v9.992a17.214,17.214,0,0,1-8.544-2.036c-1.176-.67-2.288-1.323-3.317-1.91l-1.446-.838c-.674-.38-1.283-.737-1.807-1.029-.273-.17-.5-.294-.714-.422-.231-.124-.4-.229-.567-.336-.21-.124-.378-.21-.5-.273-.1-.061-.168-.105-.168-.105l-158.237-91.4c-5.017-2.895-9.09-9.95-9.09-15.744V285.929c0-2.813.966-4.807,2.519-5.813h.021l.294-.168c.063-.021.1-.042.168-.065a1.47,1.47,0,0,1,.378-.145,1.272,1.272,0,0,1,.4-.128,2.659,2.659,0,0,1,.588-.124c.21-.021.42-.044.63-.044a5.564,5.564,0,0,1,.987.084,6.549,6.549,0,0,1,1.008.233,11.86,11.86,0,0,1,2.1.922l5.311,3.065L347,298.251l127.8,73.831h.021l7.937,4.578.019.021a18.615,18.615,0,0,0,9.09,2.162v10.032a17.237,17.237,0,0,1-8.544-2.036c-1.176-.672-2.288-1.32-3.317-1.91l-1.446-.838c-1.6-.9-2.794-1.6-3.382-1.954l-.336-.189a.069.069,0,0,0-.042-.019L338.46,303.163l-18.83-10.872C317.636,291.137,316,292.081,316,294.39Z" transform="translate(-307.476 -158.501)" fill="#706edc"/>
        </g>
        <g id="Group_1034" data-name="Group 1034" transform="translate(22.419 162.814)">
          <path id="Path_1014" data-name="Path 1014" d="M320.685,283.882l34.219-9.594-25.682-14.826-8.536,4.922Z" transform="translate(-315.376 -134.358)" fill="#345184"/>
          <path id="Path_1015" data-name="Path 1015" d="M594.552,258.9,408.311,366.44c0,.021-7.977,4.62-7.977,4.62a18.624,18.624,0,0,1-9.09,2.183v9.99a17.275,17.275,0,0,0,8.544-2.034c1.176-.674,2.288-1.325,3.317-1.91l1.448-.842c.672-.376,1.281-.733,1.805-1.029.273-.168.5-.294.714-.418.231-.128.4-.233.569-.336a5.09,5.09,0,0,1,.5-.273c.1-.065.166-.107.166-.107L594.55,268.752A9.749,9.749,0,0,0,599.1,261.2v-8C599.1,256.24,595.971,258.079,594.552,258.9Z" transform="translate(-237.817 -141.236)" fill="#6f89d1"/>
          <path id="Path_1016" data-name="Path 1016" d="M467.11,411.237a18.676,18.676,0,0,0,9.09-2.183l7.956-4.6L671.2,296.472c5.015-2.9,5.015-7.62.021-10.538l-24.878-4.463L541.275,220.844c-5.017-2.918-13.16-2.937-18.177-.063L353.208,319.16l-8.544,4.912-22.419,2.786-.019.021a1.524,1.524,0,0,0,.061.317.336.336,0,0,0,.023.208,6.22,6.22,0,0,0,.187.8,5.276,5.276,0,0,0,.338.9,8.616,8.616,0,0,0,.441.882,5.811,5.811,0,0,0,.544.816,6.087,6.087,0,0,0,.464.59l.355.355a7.1,7.1,0,0,0,.609.525c.189.147.4.294.59.422l124.207,71.738h.021l7.956,4.6A18.344,18.344,0,0,0,467.11,411.237Z" transform="translate(-313.682 -179.23)" fill="#4c68a5"/>
          <path id="Path_1017" data-name="Path 1017" d="M324.771,298.836l134.321,77.57a10.491,10.491,0,0,0,10.5,0L663.714,264.321a5.256,5.256,0,0,0,2.624-4.545V244.471l-202,116.99L324.746,280.867Z" transform="translate(-310.912 -150.837)" fill="#fff"/>
          <path id="Path_1018" data-name="Path 1018" d="M396.5,376.406,590.618,264.321a5.257,5.257,0,0,0,2.624-4.545V244.471l-202,116.99v16.351A10.493,10.493,0,0,0,396.5,376.406Z" transform="translate(-237.817 -150.837)" fill="#dae6ea"/>
          <path id="Path_1019" data-name="Path 1019" d="M323.728,264.72l.021,13.2a5.453,5.453,0,0,0,2.126,4.375c1.173.678,2.127-.181,2.127-1.921V267.186a5.458,5.458,0,0,0-2.137-4.381C324.683,262.121,323.728,262.98,323.728,264.72Z" transform="translate(-312.031 -130.943)" fill="#ffdb4c"/>
          <path id="Path_1020" data-name="Path 1020" d="M404.554,364.473c1.6-.9,2.792-1.6,3.38-1.952l.336-.191c.042-.021,110.8-63.981,110.8-63.981l75.483-43.577a9.748,9.748,0,0,0,4.547-7.545c0-1.274,0-8,0-8,0,3.145-3.21,4.931-4.543,5.7l-84.029,48.508-102.21,59.029c-.021,0-7.956,4.576-7.956,4.576a18.512,18.512,0,0,1-9.111,2.183V369.26a17.253,17.253,0,0,0,8.544-2.036c1.176-.672,2.288-1.324,3.317-1.91Z" transform="translate(-237.817 -156.601)" fill="#6f89d1"/>
          <path id="Path_1021" data-name="Path 1021" d="M674.34,287.746l-24.857,14.361L487.3,395.731l-7.956,4.6a20.136,20.136,0,0,1-18.2-.019l-7.935-4.576h-.021L356.352,339.8l-25.125-14.505-5.313-3.065a11.733,11.733,0,0,0-2.1-.922,6.535,6.535,0,0,0-1.008-.233,5.526,5.526,0,0,0-.985-.084,6.318,6.318,0,0,0-.632.044,2.529,2.529,0,0,0-.586.126,1.216,1.216,0,0,0-.4.126.947.947,0,0,0-.38.145,1.641,1.641,0,0,0-.46.233L526.242,202.017c5.017-2.9,13.16-2.857,18.177.061l129.942,75.132C679.355,280.128,679.355,284.831,674.34,287.746Z" transform="translate(-316.826 -199.866)" fill="#aacaf9"/>
          <path id="Path_1022" data-name="Path 1022" d="M334.076,314.227l116.316,67.449a12.006,12.006,0,0,0,10.9,0l168.9-97.47c3.012-1.742,3.006-4.557-.01-6.289L513.2,210.814a12.09,12.09,0,0,0-10.916.021l-168.2,97.079C331.07,309.657,331.068,312.483,334.076,314.227Z" transform="translate(-303.136 -189.252)" fill="#c1cff4" style="mix-blend-mode: multiply;isolation: isolate"/>
          <path id="Path_1023" data-name="Path 1023" d="M326.679,272.511v11.1a1.888,1.888,0,0,0,.04.46.68.68,0,0,0,.042.338.336.336,0,0,0,.023.208,6.206,6.206,0,0,0,.187.8,5.28,5.28,0,0,0,.338.9,8.631,8.631,0,0,0,.441.882,5.816,5.816,0,0,0,.544.817,6.1,6.1,0,0,0,.464.59l.355.355a3.6,3.6,0,0,0,.609.525c.189.147.4.294.59.422l124.207,71.738v.021l7.977,4.6a18.63,18.63,0,0,0,9.09,2.183v9.99a17.274,17.274,0,0,1-8.542-2.034c-1.178-.674-2.288-1.325-3.317-1.91l-1.451-.842c-.67-.376-1.278-.733-1.8-1.029-.275-.168-.5-.294-.716-.418-.229-.128-.4-.233-.567-.336a5.114,5.114,0,0,0-.5-.273c-.105-.065-.168-.107-.168-.107l-127.274-73.5c-5.015-2.9-9.087-9.95-9.087-15.744V264.051c0-2.813.966-4.807,2.517-5.813h.023l.292-.168c.065-.021.107-.042.168-.065a1.486,1.486,0,0,1,.38-.145,1.217,1.217,0,0,1,.4-.126,2.528,2.528,0,0,1,.586-.126,6.308,6.308,0,0,1,.632-.044,5.522,5.522,0,0,1,.984.084,6.532,6.532,0,0,1,1.008.233,11.736,11.736,0,0,1,2.1.922l5.313,3.065,25.125,14.505,96.836,55.935h.021l7.935,4.576.021.019a18.575,18.575,0,0,0,9.09,2.164V349.1a17.251,17.251,0,0,1-8.542-2.036c-1.178-.672-2.288-1.325-3.317-1.91l-1.451-.84c-1.6-.9-2.792-1.6-3.378-1.952l-.336-.191a.072.072,0,0,0-.044-.021l-105.38-60.866L330.31,270.412C328.316,269.26,326.679,270.2,326.679,272.511Z" transform="translate(-318.156 -136.444)" fill="#7fa8e6"/>
        </g>
        <g id="Group_1035" data-name="Group 1035" transform="translate(47.368 122.088)">
          <path id="Path_1024" data-name="Path 1024" d="M332.57,270.446l34.22-14.715-25.683-24.673-8.535,4.923Z" transform="translate(-327.261 -124.853)" fill="#8e2d59"/>
          <path id="Path_1025" data-name="Path 1025" d="M561.791,239.769,408.308,328.41c0,.021-7.977,4.616-7.977,4.616a18.6,18.6,0,0,1-9.09,2.185V345.2a17.26,17.26,0,0,0,8.544-2.038c1.176-.67,2.288-1.322,3.317-1.908l1.448-.842c.672-.376,1.281-.733,1.805-1.029.273-.168.5-.292.714-.42.231-.126.4-.229.567-.334a5.651,5.651,0,0,1,.5-.273c.1-.063.168-.107.168-.107l153.483-88.632a9.75,9.75,0,0,0,4.545-7.551v-8C566.336,237.107,563.212,238.948,561.791,239.769Z" transform="translate(-262.769 -121.541)" fill="#bf2878"/>
          <path id="Path_1026" data-name="Path 1026" d="M454.04,373.5a18.658,18.658,0,0,0,9.09-2.185l7.956-4.6,154.283-89.086c5.017-2.9,5.017-7.62.021-10.536L604.8,255.027l-84.4-53.584c-5.017-2.918-13.162-2.939-18.179-.063L365.1,280.86v9.847l-30.963,12.818-.021.021a1.675,1.675,0,0,0,.063.315.346.346,0,0,0,.021.21,6.216,6.216,0,0,0,.189.8,5.249,5.249,0,0,0,.336.9,8.632,8.632,0,0,0,.441.882,5.568,5.568,0,0,0,.546.819,6.31,6.31,0,0,0,.462.588l.357.357a6.777,6.777,0,0,0,.609.525c.189.147.4.3.588.42L436.974,366.7h.021l7.956,4.6A18.339,18.339,0,0,0,454.04,373.5Z" transform="translate(-325.567 -159.829)" fill="#af2a6e"/>
          <path id="Path_1027" data-name="Path 1027" d="M336.657,283.046l109.364,63.165a10.5,10.5,0,0,0,10.5,0l161.367-93.187a5.245,5.245,0,0,0,2.624-4.545v-30.27L451.269,316.3,336.632,250.107Z" transform="translate(-322.796 -138.978)" fill="#fff"/>
          <path id="Path_1028" data-name="Path 1028" d="M396.49,346.211l161.367-93.187a5.245,5.245,0,0,0,2.624-4.545v-30.27L391.242,316.3v31.318A10.48,10.48,0,0,0,396.49,346.211Z" transform="translate(-262.769 -138.978)" fill="#dae6ea"/>
          <path id="Path_1029" data-name="Path 1029" d="M335.614,236.314l.019,28.167a5.468,5.468,0,0,0,2.129,4.377c1.174.68,2.124-.183,2.124-1.921V238.781a5.465,5.465,0,0,0-2.137-4.381C336.569,233.718,335.612,234.574,335.614,236.314Z" transform="translate(-323.915 -121.438)" fill="#ffdb4c"/>
          <path id="Path_1030" data-name="Path 1030" d="M404.551,319.31c1.6-.9,2.792-1.6,3.38-1.952l.336-.189c.042-.019,102.292-59.057,102.292-59.057l51.233-29.6a9.739,9.739,0,0,0,4.545-7.544c0-1.274,0-8,0-8,0,3.145-3.207,4.933-4.54,5.7L502.017,253.2l-93.708,54.1c-.021,0-7.956,4.578-7.956,4.578a18.532,18.532,0,0,1-9.111,2.181V324.1a17.258,17.258,0,0,0,8.544-2.034c1.176-.674,2.288-1.323,3.317-1.912Z" transform="translate(-262.769 -144.744)" fill="#bf2878"/>
          <path id="Path_1031" data-name="Path 1031" d="M628.512,253.941,603.659,268.3l-129.43,74.723-7.956,4.6a20.161,20.161,0,0,1-18.2-.021l-7.935-4.578h-.021L368.239,301.5l-25.127-14.505-5.311-3.063a11.752,11.752,0,0,0-2.1-.926,6.289,6.289,0,0,0-1.008-.231,5.368,5.368,0,0,0-.987-.084c-.21,0-.42.021-.63.042a2.65,2.65,0,0,0-.588.126,1.324,1.324,0,0,0-.4.126.943.943,0,0,0-.378.147,1.585,1.585,0,0,0-.462.231l174.12-100.745c5.017-2.9,13.162-2.855,18.179.063L628.533,243.4C633.529,246.321,633.529,251.023,628.512,253.941Z" transform="translate(-328.711 -180.465)" fill="#ff66a7"/>
          <path id="Path_1033" data-name="Path 1033" d="M338.564,244.107v26.066a1.8,1.8,0,0,0,.042.462.646.646,0,0,0,.042.336.345.345,0,0,0,.021.21,6.215,6.215,0,0,0,.189.8,5.255,5.255,0,0,0,.336.9,8.644,8.644,0,0,0,.441.882,5.562,5.562,0,0,0,.546.819,6.317,6.317,0,0,0,.462.588l.357.357a3.431,3.431,0,0,0,.609.525c.189.147.4.3.588.42l99.252,57.337v.021l7.977,4.6a18.6,18.6,0,0,0,9.09,2.185V350.6a17.261,17.261,0,0,1-8.544-2.038c-1.176-.67-2.288-1.322-3.317-1.908l-1.448-.842c-.672-.376-1.281-.733-1.805-1.029-.273-.168-.5-.292-.714-.42-.231-.126-.4-.229-.567-.334a5.65,5.65,0,0,0-.5-.273c-.1-.063-.168-.107-.168-.107l-102.317-59.1c-5.017-2.9-9.09-9.95-9.09-15.744V235.65c0-2.815.966-4.809,2.519-5.817h.021l.294-.168c.063-.021.105-.042.168-.063a1.406,1.406,0,0,1,.378-.147,1.322,1.322,0,0,1,.4-.126,2.657,2.657,0,0,1,.588-.126c.21-.021.42-.042.63-.042a5.372,5.372,0,0,1,.987.084,6.288,6.288,0,0,1,1.008.231,11.749,11.749,0,0,1,2.1.926l5.311,3.063,25.127,14.505L441.447,289.5h.021l7.935,4.578.021.021a18.614,18.614,0,0,0,9.09,2.16v10.034a17.259,17.259,0,0,1-8.544-2.034c-1.176-.674-2.288-1.323-3.317-1.912l-1.448-.84c-1.6-.9-2.792-1.6-3.38-1.952l-.336-.189a.069.069,0,0,0-.042-.019l-80.422-46.464L342.2,242.008C340.2,240.853,338.564,241.8,338.564,244.107Z" transform="translate(-330.041 -126.939)" fill="#e7478d"/>
        </g>
      </g>
      <g id="Group_1047" data-name="Group 1047" transform="translate(0 368.323)">
        <path id="Path_1049" data-name="Path 1049" d="M208.456,410.991l136.433,78.77,93.8-54.153c15.246-8.8,42.236-33.889,51.162-59.078L353.422,297.765s-25.283,44.241-68.27,68.946S208.456,410.991,208.456,410.991Z" transform="translate(-208.456 -297.765)" fill="#c1cff4"/>
        <path id="Path_1050" data-name="Path 1050" d="M312.077,369.645s-34.905,23.013-76.742,24.615c8.527,4.923,27.766,6.965,42.635,4.923,0,0-2.078,8.647-17.054,19.692,0,0,24.384,6.573,68.215-39.385Z" transform="translate(-178.911 -218.755)" fill="#c1cff4"/>
      </g>
      <g id="Group_1049" data-name="Group 1049" transform="translate(85.977 251.985)">
        <path id="Path_1051" data-name="Path 1051" d="M261.229,311.612c-15.754,9.1-15.754,23.843,0,32.939s41.3,9.1,57.05,0,15.754-23.843,0-32.939S276.984,302.516,261.229,311.612Z" transform="translate(-249.413 -173.705)" fill="#c1cff4"/>
        <g id="Group_1048" data-name="Group 1048" transform="translate(11.407)">
          <path id="Path_1052" data-name="Path 1052" d="M272.106,255.195c-4.062.2-6.929,1.157-9.841,4.085-2.139,2.147-6.923,18.074-7.393,24.689s6.014,10.853,12.627,9.545c6.107-1.207,13.529-12.889,13.374-18S272.106,255.195,272.106,255.195Z" transform="translate(-254.847 -228.22)" fill="#e94372"/>
          <path id="Path_1053" data-name="Path 1053" d="M265.27,259.463s-1.1-1.434-3.648-.632a31.7,31.7,0,0,0-4.763,9.356s-.659-.021-.239-1.736a29.841,29.841,0,0,1,3.189-7.3c1.083-1.453,3.816-3.667,10.481-4.335s3.835,2.521,3.835,2.521Z" transform="translate(-253.054 -228.736)" fill="#d83068"/>
          <path id="Path_1054" data-name="Path 1054" d="M312.125,285.1c-1.218.348-2.4.193-4.077.821a13.226,13.226,0,0,1-3.919.985c-1.461.122-5.76-1.524-9.505-3.659a42.062,42.062,0,0,1-10.721-9.425,98.993,98.993,0,0,1-8.848-14.942c-1.444-3.195-3.47-3.806-5.428-3.671-2.3.159-3.361,1.463-1.218,5.792s6.55,12.081,10.88,17.037a42.724,42.724,0,0,0,11.216,9.268,53.332,53.332,0,0,0,11.816,4.96c1.188.363,1.982.928,4.171,1.887a14.825,14.825,0,0,0,6.929,1.308c1.984-.233,2.664-.632,2.792-1.054.159-.529-.258-.846-1.178-.842a12.146,12.146,0,0,1-4.322-.447s2.009.1,3.216.044a12.034,12.034,0,0,0,3.168-.55c.983-.334,1.413-1.814.489-1.835s-1.65.216-3.438.262a11.915,11.915,0,0,1-2.828-.246,22.536,22.536,0,0,0,3.535-.59,5.041,5.041,0,0,0,2.523-1.3c.357-.357.336-1.278-.816-1.152a18.146,18.146,0,0,1-4.3.615c-1.459-.065-2.481-.313-2.28-.525s1.058-.113,2.215-.649c1.1-.51,1.885-1.667,1.547-2.267S313.342,284.756,312.125,285.1Z" transform="translate(-241.219 -228.22)" fill="#ffa8a7"/>
          <path id="Path_1055" data-name="Path 1055" d="M264.272,308.375a18.891,18.891,0,0,1-.775,2.242,9.888,9.888,0,0,0-.871,3.552c.061.871,1.868,2.364,3.176,2.739a8.406,8.406,0,0,1,3.77,3.176,7.736,7.736,0,0,0,5.5,3.05c1.893.063,4.054-.061,4.614-.745s.063-1.623-3.424-4.983-5.853-5.437-6.692-8.2Z" transform="translate(-246.303 -169.765)" fill="#2d2979"/>
          <path id="Path_1056" data-name="Path 1056" d="M261.5,313.291a6.767,6.767,0,0,0-.976,4.448,24.6,24.6,0,0,1-.306,6.186,11.3,11.3,0,0,0,1.98,6.869,2.9,2.9,0,0,0,5.023-.829,11.679,11.679,0,0,0,.508-7.385c-.661-2.607.218-4.6-.218-6.344a15.052,15.052,0,0,0-1.054-2.945Z" transform="translate(-248.994 -164.361)" fill="#2d2979"/>
          <path id="Path_1057" data-name="Path 1057" d="M259.469,277.084c-1.912,8.2.617,21.185,1.025,27.915s1.006,14.558,1.006,14.558-2.055,7.1-1.956,12.568c.107,5.811,3.5,22.451,3.5,22.451a4.59,4.59,0,0,0,4.956,0s.863-14.394,1.654-21.059c.825-6.961,1.1-12.039,1.818-16.107.9-5.072,2.4-28.276,2.4-28.276l.791.229,1.843,22.812a33.958,33.958,0,0,0-3.59,8.157c-1.062,4.123-4.406,23.924-4.406,23.924a4.245,4.245,0,0,0,5.3.833s11.277-26.775,12.692-29.223c1.509-2.616,1.736-32.968-.678-40.135Z" transform="translate(-250.544 -205.646)" fill="#c4d9ff"/>
          <path id="Path_1058" data-name="Path 1058" d="M265.961,283.791s5.477-1.641,7.843-3.2c0,0-3.082,2.46-4.421,3.363s-.991,20.362-.991,20.362l-1.639-20.3Z" transform="translate(-242.631 -200.304)" fill="#aacaf9"/>
          <path id="Path_1059" data-name="Path 1059" d="M264.837,252.074s.428,7.712.288,8.277-3.031,1.106-3.842,1.776,4.165,8.506,6.707,9.671,10.42-1.768,10.981-5.683c.516-3.606-2.234-6.417-3.294-7.4a15.751,15.751,0,0,0-2.173-.061l-.218-3.739C269.842,253.806,264.837,252.074,264.837,252.074Z" transform="translate(-247.87 -231.651)" fill="#ffa8a7"/>
          <path id="Path_1060" data-name="Path 1060" d="M265.481,257.665c-2.166.325-5.208,1.509-5.552,2.693a27.64,27.64,0,0,0,1.142,12.837,82.594,82.594,0,0,0,5.114,10.475s8.2,2.561,15.771-2.1a50.256,50.256,0,0,0,.81-6.881c6.99-6.062,1.054-13.582-4.839-19.428a12.447,12.447,0,0,0-2.126-.036,14.546,14.546,0,0,1,3.226,4.366c.98,2.24.237,4.585-1.648,5.416-2.744,1.209-4.748.477-7.068-2.028C268.737,261.28,267.985,259.078,265.481,257.665Z" transform="translate(-249.599 -228.219)" fill="#f5fbfb"/>
          <path id="Path_1061" data-name="Path 1061" d="M265.377,256.017s4.772,3.661,4.4,11.705a22.6,22.6,0,0,1-6.235,13.932l-2.1-4.633s3.741-4.033,3.644-9.3c-.12-6.484-2.231-9.444-4.125-10.019A6.01,6.01,0,0,1,265.377,256.017Z" transform="translate(-248.123 -227.317)" fill="#d83068"/>
          <path id="Path_1062" data-name="Path 1062" d="M271.556,257.943l-.176-3.027-2.454-.806-6-2.036s.067,1.394.111,2.42c0,0,.246,2.637,4.6,4.694C268.407,259.551,271.312,259.828,271.556,257.943Z" transform="translate(-245.963 -231.651)" fill="#f28f8f"/>
          <path id="Path_1063" data-name="Path 1063" d="M279.619,251.962h0c-.762-4.954-4.328-8.707-9.436-8.422a9.814,9.814,0,0,0-4.994,17.931,9.9,9.9,0,0,0,.779,2.166c1.807,2.114,6.608,3.466,8.193,3.491,1.371.019,2.557-1.257,3.85-3.382C280.7,259.324,280.039,254.41,279.619,251.962Z" transform="translate(-248.222 -241.048)" fill="#ffa8a7"/>
          <path id="Path_1064" data-name="Path 1064" d="M278.879,247.969a9.731,9.731,0,0,0-10.208-4.23,9.9,9.9,0,0,0-7.754,8.7,9.792,9.792,0,0,0,4.274,9.029c-.109-.334-2.7-4.184-.042-5.036a3.217,3.217,0,0,1,.552,2.019s1.314-.122,1.018-1.665c-.082-.428-.159-.823-.229-1.178a4.537,4.537,0,0,1,.754-3.418,3.967,3.967,0,0,0,.7-3.216,13.194,13.194,0,0,0,7.477.579A6.812,6.812,0,0,0,278.879,247.969Z" transform="translate(-248.223 -241.048)" fill="#3a2c6d"/>
          <path id="Path_1065" data-name="Path 1065" d="M266.784,243.107c1.757,1.4,1.113,3.594-.565,5.7s-3.749,3.325-5.5,1.929-1.82-4.236-.143-6.344S265.029,241.711,266.784,243.107Z" transform="translate(-249.892 -242.345)" fill="#3a2c6d"/>
          <path id="Path_1066" data-name="Path 1066" d="M264.24,248.811a14.707,14.707,0,0,1,.68,6.212,19.646,19.646,0,0,0,5.026,0,30.831,30.831,0,0,0-.361-6.212,20.463,20.463,0,0,1,1.45,5.949,7.1,7.1,0,0,0,3.892-.724,10.7,10.7,0,0,0-.489-4.075,7.821,7.821,0,0,1,1.249,3.894,3.435,3.435,0,0,0,1.957-1c.77-.859-.743-9.673-8.067-9.159Z" transform="translate(-244.523 -240.88)" fill="#3a2c6d"/>
          <path id="Path_1067" data-name="Path 1067" d="M265.09,255.139s-.239.493-1.2.539c-1.791.088-3.89-3.241-2.446-5.5.9-1.413,2.943-.917,3.6-.073Z" transform="translate(-248.123 -234.715)" fill="#ffa8a7"/>
          <path id="Path_1068" data-name="Path 1068" d="M266.232,269.46c.527,1,.609,2.1-1.155,4.652s-5.322,8.086-5.979,12.339c1.4,1.5,3.407,4.566,9.505,5.531,8.773,1.39,15.32-2.464,17.388-4.713a59.409,59.409,0,0,0-1.652-10.338,70.521,70.521,0,0,1-1.81-8.569C282.159,265.238,266.232,269.46,266.232,269.46Z" transform="translate(-250.174 -215.013)" fill="#f5fbfb"/>
          <path id="Path_1069" data-name="Path 1069" d="M267.059,255.4a20.745,20.745,0,0,1,8.561,7s-2.37-5.286-4.874-7.03A4.868,4.868,0,0,0,267.059,255.4Z" transform="translate(-241.424 -228.393)" fill="#d83068"/>
          <path id="Path_1070" data-name="Path 1070" d="M285.875,304.454c-1.232-.288-2.194-1-3.963-1.262a13.245,13.245,0,0,1-3.9-1.041c-1.337-.6-4.295-4.129-6.535-7.813a42.02,42.02,0,0,1-4.8-13.441,98.965,98.965,0,0,1-.485-17.36c.29-3.5-1.186-5.011-2.964-5.844-2.089-.976-3.648-.353-3.875,4.471s-.134,13.743,1.245,20.177a42.766,42.766,0,0,0,5.307,13.548,53.413,53.413,0,0,0,7.925,10.07c.865.894,1.285,1.774,2.733,3.674a14.792,14.792,0,0,0,5.422,4.507c1.849.758,2.637.739,2.951.435.4-.386.187-.865-.619-1.308a12.2,12.2,0,0,1-3.562-2.49s1.711,1.058,2.792,1.6a11.95,11.95,0,0,0,3.033,1.054c1.022.187,2.118-.9,1.318-1.364s-1.545-.611-3.134-1.44a11.887,11.887,0,0,1-2.351-1.587,22.568,22.568,0,0,0,3.378,1.2,5.021,5.021,0,0,0,2.836.086c.485-.136.915-.955-.155-1.4a18.152,18.152,0,0,1-4.06-1.553c-1.245-.764-2.017-1.476-1.738-1.562s.978.414,2.25.506c1.213.09,2.456-.544,2.454-1.228S287.109,304.739,285.875,304.454Z" transform="translate(-250.003 -225.906)" fill="#ffa8a7"/>
        </g>
      </g>
      <g id="Group_1051" data-name="Group 1051" transform="translate(710.801 322.692)">
        <path id="Path_1071" data-name="Path 1071" d="M750.655,304.652,594.048,395.159l-46.986,9.323,8.223-9.358h0l23.228-26.433.011.019v0l112.185-64.735.021-.021,1.01-.575,11.982-6.921a1.292,1.292,0,0,1,.269-.214l7.822-4.444c.006-.017.006-.017.031-.029l16.258-9.5c7.011-4.853,23.274,4.331,25.087,13.846C753.892,299.673,753.281,302.837,750.655,304.652Z" transform="translate(-547.062 -270.638)" fill="#c1cff4"/>
        <g id="Group_1050" data-name="Group 1050">
          <path id="Path_1072" data-name="Path 1072" d="M578.51,320.159,547.062,355.95l46.98-9.323C612.347,336.088,594.6,310.918,578.51,320.159Z" transform="translate(-547.062 -229.718)" fill="#fff5e6"/>
          <path id="Path_1073" data-name="Path 1073" d="M547.062,349.337l48.89-25.163c7.249,6.955,7.215,10.588-1.906,15.841Z" transform="translate(-547.062 -223.105)" fill="#f2e2cc"/>
          <path id="Path_1074" data-name="Path 1074" d="M547.063,341.062l8.222-9.36-.869,2.72,2.327-.777-1.334,2.55,3-.092-1.913,1.839,3.641.525Z" transform="translate(-547.061 -214.83)" fill="#191f34"/>
          <path id="Path_1075" data-name="Path 1075" d="M711.627,308.473l-3.508,2.017-4.226,2.454-126.321,72.9c3.705-2.133,1.879-10.2-.369-14.547-3.995-7.733-11.619-13.943-15.154-11.9l125.2-72.252,8.09-4.658C690.268,285.789,706.495,311.721,711.627,308.473Z" transform="translate(-530.588 -268.934)" fill="#ffdb4c"/>
          <path id="Path_1076" data-name="Path 1076" d="M700.184,299.866l-4.226,2.454-126.321,72.9c3.663-2.108,1.753-10.639-.369-14.547l120.548-68.524Z" transform="translate(-522.653 -258.309)" fill="#fdb724"/>
          <path id="Path_1077" data-name="Path 1077" d="M664.9,302.428l-22.554,13.139c-2.194,1.392-6.415-2.546-10.129-7.784-4.975-7.011-9.071-16.321-6.161-18.208.006-.017.006-.017.029-.029l21.307-12.408c7.013-4.858,18.225,7.242,20.039,16.758C668.133,297.451,667.52,300.614,664.9,302.428Z" transform="translate(-461.303 -276.027)" fill="#f95da4"/>
          <path id="Path_1078" data-name="Path 1078" d="M667,299.938a9.823,9.823,0,0,0,.43-6.044c-1.814-9.516-13.026-21.615-20.039-16.758L626.08,289.545c-.023.013-.023.013-.029.029-1.684,1.092-1.014,4.671.806,8.848l14,4.3L663.1,289.363S667.3,291.752,667,299.938Z" transform="translate(-461.302 -276.027)" fill="#fd9ccf"/>
          <path id="Path_1079" data-name="Path 1079" d="M621.641,287.221l7.839-4.494c2.227-1.381,8.271,2.02,11.986,7.318,4.95,7.024,7.169,16.913,4.219,18.746l-5.787,3.3-2.07,1.188c2.951-1.833-1.066-11.136-6.018-18.16-3.564-5.072-7.639-8.966-9.912-8.019l-.025.013A.551.551,0,0,0,621.641,287.221Z" transform="translate(-465.085 -269.003)" fill="#a5cbfa"/>
          <path id="Path_1080" data-name="Path 1080" d="M626.677,284.426c6.875-4.27,23.066,21.79,16.193,26.064l-7.832,4.526c5.17-3.214-11.021-29.271-16.191-26.059Z" transform="translate(-468.156 -267.313)" fill="#344593"/>
          <path id="Path_1081" data-name="Path 1081" d="M615.292,290.961l7.731-4.471c6.34-4.091,22.988,21.714,16.647,25.805a1.235,1.235,0,0,1-.267.214l-7.822,4.444C639.185,312.186,622.9,286.193,615.292,290.961Z" transform="translate(-472.064 -265.009)" fill="#a5cbfa"/>
          <path id="Path_1082" data-name="Path 1082" d="M648.445,290.044c-3.716-5.3-9.759-8.7-11.987-7.318l-7.838,4.494a.55.55,0,0,1,.231-.107l.025-.013.008,0-5.79,3.348c-.023.015-.05.021-.071.036l-7.731,4.471c4.41-2.765,11.735,4.818,15.63,12.6L651.617,295.7A33.036,33.036,0,0,0,648.445,290.044Z" transform="translate(-472.064 -269.003)" fill="#fff" opacity="0.3" style="mix-blend-mode: hard-light;isolation: isolate"/>
        </g>
      </g>
      <g id="Group_1053" data-name="Group 1053" transform="translate(553.963 391.393)">
        <path id="Path_1083" data-name="Path 1083" d="M489.995,355.081c-23.263,13.431-23.263,35.2,0,48.636s60.977,13.429,84.238,0,23.261-35.206,0-48.636S513.256,341.651,489.995,355.081Z" transform="translate(-472.131 -268.905)" fill="#c1cff4"/>
        <path id="Path_1084" data-name="Path 1084" d="M564.407,423.711c18.691-13.151,29.882-43.283,27.6-64.932-2.4-22.806-19.319-33.094-27.93-37.412v.029c-18.158-9.2-45.357-9.195-63.509.008v-.038c-8.613,4.318-25.524,14.606-27.928,37.412-2.288,21.7,8.961,51.919,27.73,65.023.084.061.174.122.26.181.871.6,1.755,1.176,2.657,1.7,16.038,9.259,42.043,9.259,58.083,0,.149-.086.275-.181.422-.269.691-.411,1.373-.85,2.047-1.308C564.031,423.971,564.222,423.843,564.407,423.711Z" transform="translate(-472.349 -302.44)" fill="#e7478d"/>
        <path id="Path_1085" data-name="Path 1085" d="M498.688,326.463c-4.755,2.744-4.755,7.2,0,9.942s12.467,2.748,17.222,0,4.757-7.2,0-9.942S503.445,323.717,498.688,326.463Z" transform="translate(-447.317 -291.554)" fill="#bf2878"/>
        <g id="Group_1052" data-name="Group 1052" transform="translate(32.729 0)">
          <path id="Path_1086" data-name="Path 1086" d="M515.2,350.325s-15.026-.225-23.4-11.436-.525-30.134-.525-30.134,18.672,1.757,27.245,15.513C526.93,337.755,515.2,350.325,515.2,350.325Z" transform="translate(-487.94 -308.755)" fill="#27debf"/>
          <path id="Path_1087" data-name="Path 1087" d="M491.8,338.889c8.369,11.212,23.4,11.436,23.4,11.436-2.061-25.652-23.92-41.57-23.92-41.57S483.433,327.681,491.8,338.889Z" transform="translate(-487.94 -308.755)" fill="#1bbc9d"/>
        </g>
        <path id="Path_1088" data-name="Path 1088" d="M500.927,350.262s-.453-21.706,10.922-31.331,19.609-10.118,19.609-10.118c6.7,0,15.244,6.155,12.1,6.986,0,0-14.337.63-24.212,8.632s-14.373,24.122-14.373,26.5a1.726,1.726,0,0,1-2.135,1.239C500.719,351.9,500.927,350.262,500.927,350.262Z" transform="translate(-440.942 -308.691)" fill="#a33d64"/>
        <path id="Path_1089" data-name="Path 1089" d="M515.878,308.813c-1.434.22-1.123,2.4,2.823,4.429,4.028,2.076,6.016,2.758,8.647,2.6.409-.032.632-.042.632-.042C531.122,314.968,522.583,308.813,515.878,308.813Z" transform="translate(-425.363 -308.691)" fill="#82294d"/>
      </g>
      <g id="Group_1055" data-name="Group 1055" transform="translate(259.241 392.097)">
        <path id="Path_1090" data-name="Path 1090" d="M341.1,310.055a33.679,33.679,0,0,1,2.62,3.258,7.568,7.568,0,0,0,2.339,2.775,22.08,22.08,0,0,0,9.127,4.1,32.506,32.506,0,0,0,12.385-.265c5.594-1.455,13.221-4.753,16.407-5.785s4.658-.183,6.1,1.146c1.7,1.562,1.459,4.127-2.918,6.165a89.456,89.456,0,0,1-18.943,6,30.219,30.219,0,0,1-12.937-.6c-4.433-1.087-6.728-2.5-10.968-4.188a29.811,29.811,0,0,0-4.568-1.713,14.754,14.754,0,0,1-6.226-3.308c-1.4-1.423-1.686-2.156-1.524-2.567.206-.514.731-.5,1.446.078a12.158,12.158,0,0,0,3.655,2.353s-1.629-1.182-2.54-1.975a12,12,0,0,1-2.129-2.408c-.56-.875.027-2.3.762-1.736s1.155,1.2,2.521,2.353a11.953,11.953,0,0,0,2.364,1.572,22.454,22.454,0,0,1-2.393-2.67,5.029,5.029,0,0,1-1.157-2.59c-.057-.5.537-1.207,1.356-.39a18.137,18.137,0,0,0,2.977,3.17c1.18.861,2.133,1.306,2.105,1.014s-.754-.75-1.322-1.889c-.544-1.09-.428-2.481.206-2.737S340.364,309.022,341.1,310.055Z" transform="translate(-331.952 -309.09)" fill="#ffa8a7"/>
        <g id="Group_1054" data-name="Group 1054" transform="translate(39.98 4.026)">
          <path id="Path_1091" data-name="Path 1091" d="M370.052,313.424c-.531-2.37-2.282-2.826-6.025-2.1s-10.7,3.575-12.515,4.274c0,0-.823,1.241.2,4.57s2.116,4.433,2.116,4.433,8.51-2.754,11.642-4.194S370.906,317.23,370.052,313.424Z" transform="translate(-350.775 -311.008)" fill="#aacaf9"/>
          <path id="Path_1092" data-name="Path 1092" d="M352.932,312.97a15.39,15.39,0,0,0,.455,4.494,13,13,0,0,0,2.143,4.494l-1.891.691s-1.285-1.194-2.179-4.568-.22-4.526-.22-4.526Z" transform="translate(-350.997 -308.851)" fill="#7fa8e6"/>
        </g>
      </g>
      <g id="Group_1058" data-name="Group 1058" transform="translate(0 284.628)">
        <path id="Path_1093" data-name="Path 1093" d="M361.943,257.895l136.429,78.77c0,88.613-76.738,142.344-102.321,157.536-25.488,15.139-51.164,29.54-51.164,29.54l-136.431-78.77s25.581-14.768,51.162-29.54S361.943,346.508,361.943,257.895Z" transform="translate(-208.456 -257.895)" fill="#fff6e3"/>
        <g id="Group_1057" data-name="Group 1057" transform="translate(59.691 26.598)">
          <path id="Path_1094" data-name="Path 1094" d="M313.631,365.774s-34.9,23.016-76.74,24.617c8.527,4.923,27.766,6.965,42.635,4.923,0,0-2.08,8.647-17.054,19.692,0,0,24.384,6.575,68.213-39.385Z" transform="translate(-236.891 -165.912)" fill="#cc327f"/>
          <path id="Path_1095" data-name="Path 1095" d="M305.912,375.009c0,8.16-8.346,14.774-18.641,14.774s-18.641-6.615-18.641-14.774,8.346-14.774,18.641-14.774S305.912,366.852,305.912,375.009Z" transform="translate(-202.004 -172.001)" fill="#e7478d"/>
          <path id="Path_1096" data-name="Path 1096" d="M285.072,383.386c-7.83,0-14.442-4.843-14.442-10.576s6.612-10.576,14.442-10.576,14.443,4.845,14.443,10.576S292.9,383.386,285.072,383.386Z" transform="translate(-199.805 -169.803)" fill="#ff66a7"/>
          <g id="Group_1056" data-name="Group 1056" transform="translate(28.155)">
            <path id="Path_1097" data-name="Path 1097" d="M290.165,271.224l101.792,58.723A9.747,9.747,0,0,1,396.5,337.5c0,2.723-2.034,3.751-4.545,2.3L290.165,281.035a9.73,9.73,0,0,1-4.545-7.53C285.62,270.8,287.654,269.775,290.165,271.224Z" transform="translate(-211.483 -270.565)" fill="#4c68a5"/>
            <path id="Path_1098" data-name="Path 1098" d="M283.076,284.9c.393-2.486,2.746-3.323,5.256-1.877l101.788,58.75c2.511,1.448,4.228,4.643,3.835,7.139s-2.744,3.34-5.254,1.889L286.909,292.023C284.4,290.575,282.684,287.386,283.076,284.9Z" transform="translate(-214.341 -257.648)" fill="#4c68a5"/>
            <path id="Path_1099" data-name="Path 1099" d="M279.622,294.942c.785-2.261,3.457-2.916,5.968-1.467l101.784,58.771c2.511,1.448,3.911,4.461,3.126,6.728s-3.455,2.93-5.966,1.48l-101.788-58.8C280.235,300.207,278.837,297.2,279.622,294.942Z" transform="translate(-218.316 -246.229)" fill="#4c68a5"/>
            <path id="Path_1100" data-name="Path 1100" d="M274.508,304.167c1.178-2.034,4.167-2.509,6.678-1.06l101.782,58.8c2.511,1.448,3.592,4.278,2.416,6.316s-4.165,2.521-6.675,1.071L276.922,310.475C274.412,309.025,273.331,306.2,274.508,304.167Z" transform="translate(-224.221 -235.718)" fill="#4c68a5"/>
            <path id="Path_1101" data-name="Path 1101" d="M268.378,312.6c1.57-1.807,4.879-2.1,7.387-.651l101.782,58.817c2.509,1.451,3.273,4.1,1.7,5.909s-4.876,2.11-7.387.659L270.081,318.5C267.57,317.052,266.81,314.409,268.378,312.6Z" transform="translate(-231.332 -226.093)" fill="#4c68a5"/>
            <path id="Path_1102" data-name="Path 1102" d="M260.473,321.155c1.963-1.585,5.588-1.694,8.1-.243l101.777,58.84c2.511,1.451,2.956,3.913.995,5.5s-5.586,1.7-8.1.25L261.465,326.648C258.955,325.2,258.512,322.74,260.473,321.155Z" transform="translate(-240.47 -216.347)" fill="#4c68a5"/>
            <path id="Path_1103" data-name="Path 1103" d="M251.99,327.587c-2.355,1.36-2.229,3.636.281,5.086l101.78,58.868a9.741,9.741,0,0,0,8.806.162c2.353-1.36,2.225-3.636-.283-5.086L260.8,327.749A9.758,9.758,0,0,0,251.99,327.587Z" transform="translate(-250.303 -208.956)" fill="#4c68a5"/>
          </g>
        </g>
      </g>
      <g id="Group_1061" data-name="Group 1061" transform="translate(253.069 372.024)">
        <path id="Path_1104" data-name="Path 1104" d="M344.253,363.149c-15.754,9.1-15.754,23.843,0,32.941s41.3,9.1,57.052,0,15.752-23.845,0-32.941S360.008,354.053,344.253,363.149Z" transform="translate(-325.245 -237.094)" fill="#c1cff4"/>
        <g id="Group_1060" data-name="Group 1060">
          <path id="Path_1105" data-name="Path 1105" d="M350.475,311.036a6.069,6.069,0,0,1-.982-6.493c1.734-3.543,5.175-6.016,10.544-4.618,4.119,1.073,7.54,2.548,7.414,5.892Z" transform="translate(-307.134 -299.528)" fill="#543354"/>
          <path id="Path_1106" data-name="Path 1106" d="M356.619,371.741s-.063,1.428-.023,2.687c.042,1.362.193,3.487-1.236,4.119s-3.166.8-4.251-.386a31.58,31.58,0,0,0-4.688-4.377c-1.8-1.312-4.022-2.786-4.864-5.1-.762-2.089-.4-3.8.911-4.5,1.868-1,7.194,4.32,8.546,3.529S356.619,371.741,356.619,371.741Z" transform="translate(-315.655 -228.599)" fill="#2d2979"/>
          <path id="Path_1107" data-name="Path 1107" d="M375.14,334.4l-15.406,45.219-8.405,24.722s-3.638.972-5.355-4.106l4.589-28.82,5.038-31.65Z" transform="translate(-310.366 -261.198)" fill="#e94372"/>
          <path id="Path_1108" data-name="Path 1108" d="M359.734,360.236l-8.405,24.722s-3.638.972-5.355-4.106l4.589-28.82Z" transform="translate(-310.366 -241.815)" fill="#d83068"/>
          <path id="Path_1109" data-name="Path 1109" d="M355.222,378.047c1.977-.229,3.6-7.492,3.073-9.755l4.939-2.147a8.583,8.583,0,0,0,3.334,2.2,4.4,4.4,0,0,1,.97.68c1.176,1.176.647,2.742-.214,3.9-.458.619-1.012,1.136-1.522,1.711a22.15,22.15,0,0,0-2.8,3.726c-.884,1.709-1.482,4.358-4.177,4.841a6.027,6.027,0,0,1-3.606-.611,18.019,18.019,0,0,1-3.237-2.076C351.395,379.693,352.381,377.665,355.222,378.047Z" transform="translate(-303.939 -226.302)" fill="#2d2979"/>
          <path id="Path_1110" data-name="Path 1110" d="M374.86,338.83c1.694-5.991.432-8.836.531-8.424l-26.62,8.344c-.846,9.975-2.712,20.448-2.53,35.537.05,4.131,5.179,11.493,9.249,17.864s8.972,15.872,8.972,15.872c3.923.789,5.137-2.3,5.137-2.3s-4.1-12.946-5.391-17.528c-2.813-10.013-6.98-13.07-6.98-13.07s1.012-4.075,2.1-9.123c1.272-5.928,3.959-17.35,3.959-17.35S373.168,344.824,374.86,338.83Z" transform="translate(-310.085 -265.629)" fill="#e94372"/>
          <path id="Path_1111" data-name="Path 1111" d="M352,363.37l4.956-22.319s5.525-1.864,8.319-4.238c-1,1.942-3.663,3.43-6.023,5.355C357.249,343.8,352,363.37,352,363.37Z" transform="translate(-303.745 -258.544)" fill="#d83068"/>
          <path id="Path_1112" data-name="Path 1112" d="M350.132,308.623h0c1-4.912,4.746-8.487,9.835-7.956a9.818,9.818,0,0,1,4.129,18.152,10.023,10.023,0,0,1-.894,2.126c-1.906,2.024-7.427,3.063-8.985,2.76-2-.384-3.048-1.276-3.9-3.525C348.812,316.216,349.6,311.048,350.132,308.623Z" transform="translate(-306.551 -298.333)" fill="#ffa8a7"/>
          <path id="Path_1113" data-name="Path 1113" d="M353.446,313.536s.271,1.5.458,2.469.113,1.476-1.81,2.66,2.905,3.617,6.06,3.378,6.7-2.141,7.675-4.182c1.083-2.276.989-4.956-.388-4.887-2,.1-3.493.613-3.745.019a25.883,25.883,0,0,1-.456-3.13Z" transform="translate(-304.121 -288.169)" fill="#ffa8a7"/>
          <path id="Path_1114" data-name="Path 1114" d="M364.744,319.117c1.772-3.189,2.553-3.846,3.239-6.955.712-3.22.432-7.074-2.351-7.544a9.827,9.827,0,0,0-6.908-3.951,8.486,8.486,0,0,0-8.147,3.848,5.458,5.458,0,0,0,.922,1.278,2.321,2.321,0,0,0,.35,2.147,2.931,2.931,0,0,1,.611,2.4,13.041,13.041,0,0,0-.147,3.077,2.8,2.8,0,0,0,1.48,2.076,13.261,13.261,0,0,1,.737-3.361,1.857,1.857,0,0,1,3.354.162,3.959,3.959,0,0,1-.2,4.02c-1.087,1.946-2.156,1.157-2.156,1.157-.418.325.8,4.431,1.826,5.139,1.828,1.257,4.179-.2,5.275-.766C363.293,321.508,364.744,319.117,364.744,319.117Z" transform="translate(-305.307 -298.333)" fill="#543354"/>
          <path id="Path_1115" data-name="Path 1115" d="M366.729,311.88c.554,1.383-.128,2.471-3.892,3.652s-4.3.307-4.3.307a74.061,74.061,0,0,0-7.314,3.768c-2.259,1.579-3.262,6.149-3.566,13.863-.351,8.928-.382,24.705-.084,26.987a14.989,14.989,0,0,0,9.44,2.616c5.405-.443,15.286-5.487,17.49-9.18.216-7.244.241-12.692.418-15.635.642-10.7,2.624-13.183,1.213-20.043-1.163-5.653-2.618-7.179-4.851-7.122A19,19,0,0,0,366.729,311.88Z" transform="translate(-308.835 -286.817)" fill="#f5fbfb"/>
          <path id="Path_1116" data-name="Path 1116" d="M334.2,348.832a33.718,33.718,0,0,1,4.15.5,7.508,7.508,0,0,0,3.613.349c1.576-.21,5.58-2.473,9.1-4.965a42.139,42.139,0,0,0,9.768-10.488c2.987-4.948,6.136-12.639,7.691-15.605s3.206-3.384,5.166-3.443c2.307-.067,3.93,1.931,2.225,6.447a89.5,89.5,0,0,1-9.362,17.528,44.829,44.829,0,0,1-10.483,10.294,52.318,52.318,0,0,1-11.254,5.834c-1.148.479-1.881,1.117-3.965,2.29a14.78,14.78,0,0,1-6.766,1.984c-2-.036-2.712-.363-2.88-.77-.214-.512.172-.869,1.085-.957a12.18,12.18,0,0,0,4.259-.869s-1.992.294-3.2.361a12.094,12.094,0,0,1-3.205-.235c-1.012-.235-1.587-1.662-.668-1.776s1.661.05,3.447-.078a12.055,12.055,0,0,0,2.79-.525,22.738,22.738,0,0,1-3.577-.237,5.021,5.021,0,0,1-2.639-1.047c-.39-.317-.46-1.236.7-1.224a18.207,18.207,0,0,0,4.343.185c1.444-.208,2.437-.554,2.215-.745s-1.062-.008-2.265-.426c-1.15-.4-2.04-1.476-1.765-2.1S332.955,348.607,334.2,348.832Z" transform="translate(-329.011 -282.325)" fill="#ffa8a7"/>
          <g id="Group_1059" data-name="Group 1059" transform="translate(33.639 32.245)">
            <path id="Path_1117" data-name="Path 1117" d="M357.854,315.563c-2.156-1.113-4.553-1.108-6.724,2.026s-5.158,10.036-5.964,11.8c0,0,.279,1.463,3.338,3.128s4.612,1.694,4.612,1.694,4.161-7.92,5.395-11.136S360.142,316.743,357.854,315.563Z" transform="translate(-344.893 -314.889)" fill="#aacaf9"/>
            <path id="Path_1118" data-name="Path 1118" d="M345.836,321.237a15.455,15.455,0,0,0,3.466,2.9,13.022,13.022,0,0,0,4.675,1.715l-.871,1.816s-1.751.042-4.748-1.742-3.321-3.084-3.321-3.084Z" transform="translate(-345.036 -307.911)" fill="#7fa8e6"/>
          </g>
          <path id="Path_1119" data-name="Path 1119" d="M357.6,314.815s-2.907-1.782-4.249-1.085l-2.609,1.346s3.019.288,3.661,1.849C354.4,316.925,357.091,316.679,357.6,314.815Z" transform="translate(-305.126 -284.095)" fill="#5d7aba"/>
          <path id="Path_1120" data-name="Path 1120" d="M362.285,315.216s-1.211-3.705-2.849-4.018a3.8,3.8,0,0,0-2.847.634,10.8,10.8,0,0,1,1.942,3.445Z" transform="translate(-298.697 -286.769)" fill="#5d7aba"/>
          <path id="Path_1121" data-name="Path 1121" d="M364.826,312.989c-4.742,1.308-10.5,3.357-11.745,6.4s-3.571,22.356-.7,26.141a10.886,10.886,0,0,0,9.432,4.688c3.094-.1,12.177-3.951,14.594-8.365S375.742,309.979,364.826,312.989Z" transform="translate(-304.833 -284.984)" fill="#7fa8e6"/>
          <path id="Path_1122" data-name="Path 1122" d="M356.8,327.625s.607,6.552.752,8.1,9.132-2.4,10.977-5.181c1.192-1.8.294-7.393-.042-8.586S357.866,325.6,356.8,327.625Z" transform="translate(-298.469 -275.078)" fill="#6f89d1"/>
          <path id="Path_1123" data-name="Path 1123" d="M353.406,315.716a3.869,3.869,0,0,0-.325.617c-1.241,3.046-3.571,22.356-.7,26.141a11.343,11.343,0,0,0,5.813,4.236c2.24.344,3.35-1.509,3.25-4.236a187.329,187.329,0,0,0-2.605-19.873C357.552,316.2,355.136,315.035,353.406,315.716Z" transform="translate(-304.833 -281.922)" fill="#6f89d1"/>
          <path id="Path_1124" data-name="Path 1124" d="M354.736,319.886c.151,1.385,1.27,3.6,5.777,2.632s8.636-2.884,9.845-4.5c0,0-.728,2.76-6.224,4.914S355.093,324.765,354.736,319.886Z" transform="translate(-300.734 -279.208)" fill="#5d7aba"/>
        </g>
      </g>
      <g id="Group_1067" data-name="Group 1067" transform="translate(430.909 384.499)">
        <path id="Path_1125" data-name="Path 1125" d="M425.545,346.834c-15.754,9.1-15.754,23.841,0,32.936s41.3,9.1,57.052,0,15.752-23.841,0-32.936S441.3,337.738,425.545,346.834Z" transform="translate(-413.729 -267.503)" fill="#c1cff4"/>
        <g id="Group_1064" data-name="Group 1064" transform="translate(3.407 0)">
          <path id="Path_1126" data-name="Path 1126" d="M470.682,344.434a33.238,33.238,0,0,0-4.114.735,7.312,7.312,0,0,1-4.377.16,28.448,28.448,0,0,1-15.563-11.361c-3.26-4.771-6.839-12.272-8.561-15.144s-3.39-3.2-5.355-3.147c-2.3.061-3.81,2.15-1.854,6.564a81.607,81.607,0,0,0,9.809,16.3,46.173,46.173,0,0,0,19.256,12.937,48.055,48.055,0,0,1,4.618,2.057,14.817,14.817,0,0,0,6.866,1.6c1.994-.151,2.689-.519,2.836-.934.183-.523-.223-.859-1.14-.892a12.207,12.207,0,0,1-4.3-.63s2,.181,3.212.183a12.138,12.138,0,0,0,3.189-.416c.995-.292,1.488-1.753.565-1.814s-1.656.147-3.445.118a11.843,11.843,0,0,1-2.815-.367,22.314,22.314,0,0,0,3.556-.439,5.04,5.04,0,0,0,2.578-1.192c.369-.338.386-1.264-.77-1.186a18.069,18.069,0,0,1-4.322.432c-1.455-.126-2.467-.418-2.255-.619s1.06-.069,2.238-.554c1.125-.464,1.954-1.587,1.644-2.2S471.914,344.135,470.682,344.434Z" transform="translate(-399.299 -294.258)" fill="#ffa8a7"/>
          <path id="Path_1127" data-name="Path 1127" d="M432.463,315.646c2.1-.98,4.5.546,6.356,3.464s5.046,9.438,6.549,11.6a24,24,0,0,1,2.286,4.035s-2.935,4.135-7.332,4.36a106.28,106.28,0,0,1-7.307-12.232C430.246,321.127,428.7,317.407,432.463,315.646Z" transform="translate(-399.003 -294.612)" fill="#e94372"/>
          <path id="Path_1128" data-name="Path 1128" d="M439.363,327.629a8.434,8.434,0,0,0,2.991-3.17l-.4-.752s.43-.109,1.581,1.568,1.606,2.872,1.421,3.363c-1.108,2.912-5.981,5.311-7.312,4.213-.938-.779-3.264-3.012-3.059-4.345l.552.791A10.362,10.362,0,0,0,439.363,327.629Z" transform="translate(-394.223 -285.426)" fill="#d83068"/>
          <path id="Path_1129" data-name="Path 1129" d="M418.473,369.067c-1.629-3.237-.2-7.668,1.912-13.118,2.32-5.989,4.9-12.148,4.9-12.148l27.818-9.31s25.709-.481,28.23,4.7c2.019,4.144-15.83,10.368-18.393,10.62l-15.706.852-1.646.787-11,13.924Z" transform="translate(-412.697 -273.584)" fill="#7fa8e6"/>
          <path id="Path_1130" data-name="Path 1130" d="M430.349,364.811a6.267,6.267,0,0,0,2.07,4.543,17.621,17.621,0,0,0,2.105,1.744c.773.577,2.292,1.026,2.949.021a1.975,1.975,0,0,0,.214-1.108c-.01-2.527-.166-5.059-.013-7.587.17-2.84.273-5.575,1.982-8.752l-4.742-3.543c-.321.38-.852.852-1.323,1.318s-1.006.873-1.518,1.3a5.317,5.317,0,0,0-2.2,3.153,8.262,8.262,0,0,0,.548,3.027C430.865,360.845,430.437,362.842,430.349,364.811Z" transform="translate(-399.426 -256.382)" fill="#2d2979"/>
          <g id="Group_1062" data-name="Group 1062" transform="translate(35.322 64.708)">
            <path id="Path_1131" data-name="Path 1131" d="M449.518,341.406a64.6,64.6,0,0,0-5.5,6.386c-4.585,6.424-11.835,18.009-11.835,18.009s1.134,3.68,4.591,3.516c0,0,23.828-22.249,25.774-24.3,2.956-3.117,5.315-8.258.218-8.682S451.506,339.3,449.518,341.406Z" transform="translate(-432.179 -336.296)" fill="#7fa8e6"/>
          </g>
          <path id="Path_1132" data-name="Path 1132" d="M438.991,346.47s4.247-6.222,8.655-8.815c0,0-4.381.867-11.012,8.945Z" transform="translate(-391.96 -270.093)" fill="#6f89d1"/>
          <path id="Path_1133" data-name="Path 1133" d="M432.481,353.122l10.782-4.138-6.824,6.384a4.182,4.182,0,0,1-2.592-.741C432.531,353.74,432.481,353.122,432.481,353.122Z" transform="translate(-396.525 -257.64)" fill="#6f89d1"/>
          <path id="Path_1134" data-name="Path 1134" d="M426.518,314.47s.327,6.384.187,6.946-2.928,2.437-3.741,3.107,4.41,5.821,6.952,6.986,10.586-1.9,10.729-5.857-1.377-7.27-2.611-7.448S426.518,314.47,426.518,314.47Z" transform="translate(-407.078 -295.579)" fill="#ffa8a7"/>
          <path id="Path_1135" data-name="Path 1135" d="M435.1,321.771c.842-.756-.128-2.431-.71-3.6-2.635-.8-9.774-3.705-9.774-3.705s.071,1.472.118,2.5h0a4.222,4.222,0,0,0,1.7,3.145,11.583,11.583,0,0,0,2.849,1.658C430.331,322.176,433.159,323.515,435.1,321.771Z" transform="translate(-405.173 -295.579)" fill="#f28f8f"/>
          <path id="Path_1136" data-name="Path 1136" d="M428.292,321.177s4.893,5.1,9.791,3.086c2.607-1.073,3.149-4.461.705-6.973,0,0,2.588-2.089,4.362-1.686a9.156,9.156,0,0,1,3.989,5.091,41.674,41.674,0,0,1,2.278,14.77c-.109,6.77.216,23.58.216,23.58s1.106,4.952-7.089,8.705c-5.275,2.416-10.223,3.038-14.184,2.114a11.05,11.05,0,0,1-6.615-5.258,99.842,99.842,0,0,0,.361-18.206c-.481-6-1.11-11.006-1.434-15.83s.632-4.725,3.054-6.447A38.129,38.129,0,0,1,428.292,321.177Z" transform="translate(-409.574 -294.389)" fill="#f5fbfb"/>
          <path id="Path_1137" data-name="Path 1137" d="M429.226,317.429A28.926,28.926,0,0,1,434.713,327c1.824,5.59,2.345,14.081,2.519,19.827s.781,19.319.781,19.319,2.874-1.967,2.828-7.034c0,0-.46-8.978-.72-16.88s.231-14.55-1.7-20.167-5.267-6.619-5.267-6.619Z" transform="translate(-400.102 -294.509)" fill="#d83068"/>
          <path id="Path_1138" data-name="Path 1138" d="M437.4,338.591s1.486-7.832,1.1-10.282a4.744,4.744,0,0,0-2.513-3.417s-1.551-6.254-2.194-7.736-5.156-1.713-5.156-1.713a31.672,31.672,0,0,1,3.923,6.619A48.614,48.614,0,0,1,437.4,338.591Z" transform="translate(-400.746 -294.509)" fill="#e94372"/>
          <path id="Path_1139" data-name="Path 1139" d="M429.743,317.787c.017,2.045,5.292,3.625,5.945,14.833s-1.436,38.084-1.436,38.084-8.976-.987-9.365-7.137c0,0-.873,4.287-4.755,4.114,0,0,.485-3.571,1.747-9.686s.5-14.854-.281-21.183-2.242-12,.281-14.14A55.407,55.407,0,0,1,429.743,317.787Z" transform="translate(-410.097 -291.933)" fill="#d83068"/>
          <path id="Path_1140" data-name="Path 1140" d="M426.327,316.851a1.032,1.032,0,0,0-1.148.686c-.307.621-1.936,3-1.936,3a12.309,12.309,0,0,0,3.1,4.476,24.9,24.9,0,0,1,3.858,4.79s-1.48,4.906-1.654,5.968,3.848,5.754,3.848,5.754.97-8.649-.85-13.909-5.011-8.294-5.187-9.171C426.352,317.867,426.343,317.327,426.327,316.851Z" transform="translate(-406.679 -292.982)" fill="#e94372"/>
          <path id="Path_1141" data-name="Path 1141" d="M441.307,314.359h0c-.76-4.956-4.326-8.71-9.436-8.424a9.819,9.819,0,0,0-5,17.931,10.074,10.074,0,0,0,.789,2.166c1.81,2.114,7.272,3.417,8.842,3.193,2.015-.288,3.107-1.129,4.068-3.331C442.26,322,441.727,316.8,441.307,314.359Z" transform="translate(-407.427 -304.977)" fill="#ffa8a7"/>
          <path id="Path_1142" data-name="Path 1142" d="M440.688,310.362a9.73,9.73,0,0,0-10.206-4.228,10.024,10.024,0,0,0-7.992,8.592,10.141,10.141,0,0,0,4.5,9.14c-.109-.334-2.683-4.184-.029-5.036a3.225,3.225,0,0,1,.55,2.019s1.314-.122,1.02-1.665c-.082-.43-.159-.823-.229-1.178a4.526,4.526,0,0,1,.754-3.418,3.969,3.969,0,0,0,.7-3.216,13.184,13.184,0,0,0,7.475.579A6.792,6.792,0,0,0,440.688,310.362Z" transform="translate(-407.549 -304.977)" fill="#e47871"/>
          <path id="Path_1143" data-name="Path 1143" d="M423.266,310.826s-.483-1.938,2.028-3.842c2.983-2.263,7.181-1.759,11.606,0,2.83,1.125,7.217-.254,6.365,2.989-1.245,4.753-10.423,5.16-14.417,1.849C428.563,311.733,425.54,310.316,423.266,310.826Z" transform="translate(-406.694 -305.471)" fill="#c9483a"/>
          <path id="Path_1144" data-name="Path 1144" d="M429.465,369.066a33.885,33.885,0,0,0-3.008-2.905,7.3,7.3,0,0,1-2.7-3.451,28.429,28.429,0,0,1,.082-19.266c1.954-5.441,5.932-12.738,7.251-15.817s.6-4.62-.588-6.18c-1.4-1.83-3.978-1.828-6.4,2.345a81.6,81.6,0,0,0-7.456,17.5,46.163,46.163,0,0,0,.806,23.186,48.07,48.07,0,0,1,1.039,4.946,14.807,14.807,0,0,0,2.729,6.5c1.289,1.528,2,1.875,2.416,1.749.531-.157.567-.68.057-1.446a12.152,12.152,0,0,1-2.011-3.852s1.029,1.73,1.736,2.71a11.977,11.977,0,0,0,2.206,2.336c.819.638,2.29.181,1.8-.6s-1.089-1.257-2.114-2.725a11.893,11.893,0,0,1-1.352-2.494,22.533,22.533,0,0,0,2.441,2.624,5.015,5.015,0,0,0,2.475,1.388c.493.1,1.251-.426.51-1.316a18.044,18.044,0,0,1-2.884-3.252c-.752-1.253-1.108-2.24-.821-2.189s.678.819,1.763,1.49c1.033.64,2.431.651,2.744.04S430.426,369.889,429.465,369.066Z" transform="translate(-415.132 -289.193)" fill="#ffa8a7"/>
          <path id="Path_1145" data-name="Path 1145" d="M426.767,317.5s-.227.525-1.186.573c-1.793.09-3.892-3.241-2.445-5.5.9-1.413,2.941-.917,3.6-.073Z" transform="translate(-407.327 -298.644)" fill="#ffa8a7"/>
          <g id="Group_1063" data-name="Group 1063" transform="translate(5.478 81.875)">
            <path id="Path_1146" data-name="Path 1146" d="M453.454,348.194a6.266,6.266,0,0,1,3.5,3.562,17.47,17.47,0,0,1,.873,2.59c.26.928.136,2.506-1.039,2.76a1.957,1.957,0,0,1-1.113-.2c-2.355-.913-4.662-1.967-7.074-2.731-2.716-.861-5.3-1.744-8.88-1.291l-1.608-5.7c.47-.162,1.1-.491,1.7-.762s1.176-.626,1.757-.951a5.32,5.32,0,0,1,3.732-.922,8.234,8.234,0,0,1,2.63,1.6C449.566,347.253,451.584,347.57,453.454,348.194Z" transform="translate(-395.814 -344.474)" fill="#2d2979"/>
            <path id="Path_1147" data-name="Path 1147" d="M422.343,351.832c2.1-.647,4.837-2.815,14.806-3.331,10.059-.516,23.589-2.752,23.589-2.752,2.32,2.234,1.549,5.735,1.549,5.735s-18.068,7.335-23.75,8.554c-9.1,1.954-11.907,1.507-16.332-.243S415.378,353.971,422.343,351.832Z" transform="translate(-417.962 -343.072)" fill="#7fa8e6"/>
          </g>
          <path id="Path_1148" data-name="Path 1148" d="M430.091,320.585c2.032,1.1,2.236,3.947.989,7.171s-4.6,9.665-5.445,12.156a23.9,23.9,0,0,1-1.889,4.234s-5.07.092-7.861-3.313a106.29,106.29,0,0,1,5.506-13.143C424.367,322.054,426.439,318.6,430.091,320.585Z" transform="translate(-414.768 -289.478)" fill="#e94372"/>
          <path id="Path_1149" data-name="Path 1149" d="M420.576,332.493a8.444,8.444,0,0,0,4.324.525l.367-.766s.344.281-.321,2.2-1.36,3-1.864,3.138c-3,.838-7.824-1.658-7.729-3.384.069-1.218.487-4.415,1.679-5.04l-.309.913A10.357,10.357,0,0,0,420.576,332.493Z" transform="translate(-415.352 -279.42)" fill="#d83068"/>
        </g>
        <g id="Group_1066" data-name="Group 1066" transform="translate(19.637 52.451)">
          <g id="Group_1065" data-name="Group 1065">
            <path id="Path_1150" data-name="Path 1150" d="M471.508,345.8l-17.224-9.944a.99.99,0,0,0-.989,0L423.084,353.3,440.8,363.534Z" transform="translate(-423.084 -324.665)" fill="#eff6fe"/>
            <path id="Path_1151" data-name="Path 1151" d="M436.312,359.3l-9.291-5.359,27.167-15.684,9.338,5.33Z" transform="translate(-418.756 -321.889)" fill="#aad1fc"/>
            <path id="Path_1152" data-name="Path 1152" d="M429.272,343.675l.17.1L434,346.4l8.1-4.674.168-.1-4.725-2.728Z" transform="translate(-416.282 -321.174)" fill="#aeb5b7"/>
            <path id="Path_1153" data-name="Path 1153" d="M429.354,343.671l4.555,2.628,8.1-4.674L437.449,339Z" transform="translate(-416.193 -321.072)" fill="#aad1fc"/>
            <path id="Path_1154" data-name="Path 1154" d="M423.084,348.028v.4a1.665,1.665,0,0,0,.827,1.44l16.057,9.27a1.674,1.674,0,0,0,1.66,0l29.049-16.773a1.661,1.661,0,0,0,.831-1.438v-.405L440.8,358.258Z" transform="translate(-423.084 -319.389)" fill="#c8e2ff"/>
            <path id="Path_1155" data-name="Path 1155" d="M431.523,358.258v1.1a1.675,1.675,0,0,0,.829-.22L461.4,342.369a1.661,1.661,0,0,0,.831-1.438v-.405Z" transform="translate(-413.808 -319.389)" fill="#aad1fc"/>
            <path id="Path_1156" data-name="Path 1156" d="M431.746,369.409a1.969,1.969,0,0,0,1.7-.13l28.921-16.7a1.974,1.974,0,0,0,.957-1.375l3.166-18.882a1.866,1.866,0,0,0,.027-.321,1.959,1.959,0,0,0-.584-1.4l-30.054,17.354a1.462,1.462,0,0,0-.707,1.016Z" transform="translate(-413.563 -330.297)" fill="#eff6fe"/>
            <path id="Path_1157" data-name="Path 1157" d="M431.523,369.326l.2.113a2,2,0,0,0,.271.13l3.422-20.436a1.462,1.462,0,0,1,.707-1.016l30.054-17.354a1.865,1.865,0,0,0-.4-.306l-30.119,17.388a1.457,1.457,0,0,0-.705,1.018Z" transform="translate(-413.808 -330.457)" fill="#c8e2ff"/>
            <path id="Path_1158" data-name="Path 1158" d="M439.522,342.974a6.384,6.384,0,0,1,2.914-3.751c1.4-.808,2.362-.437,2.147.829a6.387,6.387,0,0,1-2.916,3.749C440.269,344.609,439.307,344.238,439.522,342.974Z" transform="translate(-405.049 -321.291)" fill="#aad1fc"/>
          </g>
        </g>
      </g>
    </g>
  </g>
</svg>
